Simulation
nRows=16
nColumns=15
endheader
time  TH_x TH_y TH_z SC_y  SC_z  SC_x  AC_y  AC_z  AC_x  GH_y  GH_z  GH_yy  EL_x  PS_y
0.0  0.000000  0.000000  0.000000  27.393203411166468  1.888939260183304  178.82782581150462  -45.72900287812261  -3.6348077574463655  176.55049904307072  90.61726607988443  172.03209704915858  -89.26786620548546  7.864786532678877  0.000000
0.02  0.000000  0.000000  0.000000  27.361534788918203  1.9306366387034093  178.75927218423  -45.74871746335361  -3.575116911485772  176.49886227801812  90.57499502735136  171.6126763721293  -89.31634867463578  7.860058132684582  0.000000
0.04  0.000000  0.000000  0.000000  27.336993296641605  1.961152753333478  178.72215066394497  -45.76954171742714  -3.543584394880807  176.48078700337854  90.50430634847305  171.10832995439424  -89.39369812383966  7.854019701500788  0.000000
0.06  0.000000  0.000000  0.000000  27.321283055601747  1.9895765780339505  178.69681113969907  -45.786314281404685  -3.516021329246188  176.466504157633  90.43115948373277  170.58264164839989  -89.47418940908946  7.849347063589707  0.000000
0.08  0.000000  0.000000  0.000000  27.308426362280258  2.0112782302417194  178.68409922465113  -45.800326102857284  -3.4975106096808837  176.4585008260281  90.3654916253204  170.02409160469372  -89.5482826318256  7.84496407029228  0.000000
0.1  0.000000  0.000000  0.000000  27.300797518312873  2.0262977376097924  178.68702566232068  -45.810546694683126  -3.4900442069003947  176.4577874708607  90.29873892403599  169.42121842475856  -89.62295937108665  7.841311532446394  0.000000
0.12  0.000000  0.000000  0.000000  27.298563992116513  2.034424034034798  178.70689128086977  -45.81587084132467  -3.4949575778951774  176.46452223127696  90.23115862722825  168.76640212824032  -89.69930797562034  7.837952321191823  0.000000
0.14  0.000000  0.000000  0.000000  27.302257140699943  2.0354509355078574  178.74371305658892  -45.816541968941024  -3.5126192044448183  176.4783112793741  90.16154467020853  168.0544573714398  -89.77807138373596  7.834462581645036  0.000000
0.16  0.000000  0.000000  0.000000  27.312269895260656  2.0296245151982473  178.7967792447605  -45.81162510923455  -3.5427782284739884  176.4988906395562  90.08794411068874  167.28187137446486  -89.86188252668184  7.8311520594747135  0.000000
0.18  0.000000  0.000000  0.000000  27.328785641301355  2.0172011983286424  178.86476378040146  -45.801639001185286  -3.5848259367362147  176.525535469178  90.01087724294753  166.44668792294144  -89.95041396338449  7.827396139384629  0.000000
0.2  0.000000  0.000000  0.000000  27.35177414037509  1.9986737279206344  178.94592238144028  -45.78617290801264  -3.6376871852614494  176.55794008747213  89.92946644885565  165.54807400099713  -90.04503153644222  7.823237142871982  0.000000
0.22  0.000000  0.000000  0.000000  27.381276386477527  1.9745789269180605  179.03833874827976  -45.76589400994138  -3.700142270590563  176.59542528963829  89.84485872279083  164.58623637922054  -90.14485704326627  7.818684515900467  0.000000
0.24  0.000000  0.000000  0.000000  27.417113971051048  1.9457625117535295  179.13989016235527  -45.74097777367639  -3.770870840673844  176.63764881255332  89.75700336757383  163.56225520334365  -90.25012794341824  7.813966856010751  0.000000
0.26  0.000000  0.000000  0.000000  27.458709392530913  1.9130497771575734  179.24852406996692  -45.71234720277143  -3.8485554430934172  176.6840060054941  89.66786381653748  162.47814050093655  -90.35936703700999  7.808407592595789  0.000000
0.28  0.000000  0.000000  0.000000  27.505204764769832  1.8773417185265049  179.3622545397153  -45.680568972359296  -3.9317526260875746  176.73401139823204  89.57805208056678  161.33679548086496  -90.47238323064461  7.801833359036683  0.000000
0.3  0.000000  0.000000  0.000000  27.555743766931517  1.8395494065740432  179.4791979173997  -45.646706584382116  -4.019022880451991  176.78703848978483  89.48895097397302  160.14202219555187  -90.58833352808557  7.794107099717788  0.000000
